<?xml version="1.0" encoding="UTF-8"?>
<svg id="Layer_1" xmlns="http://www.w3.org/2000/svg" version="1.1" viewBox="0 0 264.6 181.3">
  <!-- Generator: Adobe Illustrator 29.5.1, SVG Export Plug-In . SVG Version: 2.1.0 Build 141)  -->
  <path d="M257.7,0l-.9.3-64.3,23.9h-.2S55.7,2.4,55.7,2.4l-1.6,10.2-1.2,7.5c0,.7-.1,1.4-.2,2.1,0,.2,0,.4,0,.6.4.6,12.1,1.8,14,2.2.6.2,1.7.3,1.9,1v44.4L0,95.8l.7,2,3.7,10,2.5,6.8,23.8-8.8v75l.6.6h191.1v-.6h13.2V29.5h.4c0-.1,28.6-10.8,28.6-10.8l-7-18.8ZM89.2,28l24.4,3.9,40.7,6.5h.3s0,0,0,0h-.4c0,0-65.1,24.2-65.1,24.2V28ZM172.9,161.3h-20.9v-46h20.9v46ZM215.6,161.3h-22.7v-47h.1v-20h-62.5v67H51.8v-63.4l163.8-60.9v124.3Z"/>
</svg>