<?xml version="1.0" encoding="UTF-8"?>
<svg id="Layer_1" xmlns="http://www.w3.org/2000/svg" version="1.1" viewBox="0 0 2500 642">
  <!-- Generator: Adobe Illustrator 29.5.1, SVG Export Plug-In . SVG Version: 2.1.0 Build 141)  -->
  <defs>
    <style>
      .st0 {
        fill: #71717b;
      }
    </style>
  </defs>
  <path class="st0" d="M725,339.2l-222.5,133.2-.3,140.4h188.2l-.3-88h69.2v88.8h194.4l.3-275.3h-90.6v81.8l-138.4-81ZM0,181.3c0,100,81.2,181.2,181.2,181.2s181.2-81.2,181.2-181.2S281.2,0,181.2,0,0,81.3,0,181.3Z"/>
  <path class="st0" d="M378.4,99.5c43,107.7-9.4,229.9-117.1,272.9-6.5,2.6-13.1,4.9-19.9,6.8,33.4,51.3,90.4,82.2,151.6,82.1,100,0,181.2-81.2,181.2-181.2s-81.2-181.2-181.2-181.2c-5,0-10,.3-14.7.6h0ZM1597.6,437.7c-.3-45.4-37.5-100.9-120.8-98.6-85.2,2.3-121.1,49-121.7,98.3-.6,51.6,51.9,90.6,130.2,90.9,59.5,0,112.9-40.2,112.3-90.6ZM1548.9,434.5c-.9,66-34.6,78.9-77.4,78.6-46.9-.6-65.7-35.5-65.7-76.2.2-34,18.4-83.3,64.8-83.3s78.9,34,78.3,80.9h0ZM150.3,383.3h58.6v227.9h-58.6v-227.9ZM367.2,481.7h55.7v131.1h-55.7v-131.1ZM639.3,56.8c13.5,3.8,29.3,19.3,29.3,52.5v122.6c0,32.9-15.8,48.7-29.3,52.5l-23.4,6.7c-8.5,1.8-8.5,13.5,5.9,13.5h231c40.6,0,82.4-37.1,79.8-78-1.2-22-24.3-63.9-74.2-71.3,35.5-12.1,39-35.2,38.7-51.9-.9-48.7-39.3-66.9-91.5-66.9h-183.8c-14.4,0-14.4,11.7-5.9,13.5l23.4,6.8h0ZM870,203c5,16.4,7.3,41.3-2.6,58.6-10,17.6-27.3,25.8-58.3,25.8h-33.7c-43.7,0-52.2-17.3-52.2-48.4l.3-71,81.2-.3c50.7-.3,62.1,24.9,65.4,35.2h0ZM781.8,55.3c28.1,0,54.8,4.3,58.9,36.1,2,15.8-7.1,58.6-42.8,58.6h-75.6l.3-94.7h59.2,0ZM1195.7,116.3c-7.3,10.2-14.9,15.8-29,15.8h-10.8c-12.6,0-12.6,18.8,0,18.8h18.8v93.5c-.7,19.2,5.6,35.9,18.8,49.9,32.9,31.1,84.7,13.5,102.6-12.9l-6.5-7.9c-10.7,14.8-27.4,21.8-45.5,19.1-11.7-2.9-19.6-17-19.6-48.1v-81.2c.4-6.8,5.8-12.1,12.6-12.3h50.1c6.1,0,12,7.1,12,13.2v80.3c0,24.9,5.3,41.1,12.6,49.9,26.7,31.7,86.5,14.1,100.9-13.8l-6.5-7.6c-7.3,14.5-23.4,22.3-39.3,19.1-10.8-2.1-18.2-16.1-17.6-47.5l.9-82.4c0-5,5.2-10.8,11.4-11.1h37.5c8.8,0,10.2-18.8,0-18.8h-37.5c-6.2.3-12.3-5.9-12.3-12.6v-37.3c0-4.1-10.3-7.3-12.6,0-3.4,12.3-8.8,24-15.8,34.6-8.1,10.4-20.8,16.1-34,15.2h-50c-6.9,0-12.5-5.7-12.4-12.6h0v-37.2c0-4.1-10.8-6.5-12.9,0-3.3,12.2-8.7,23.7-15.8,34h0ZM1704.6,131.8s-14.2,11.6-19.1,15.8c-7.1-13.4-18.1-19.6-25.8-19.6l-47.8.3c-5.6,0-10.6,2.9-10.2,7.3,0,4.1,10.2,6.2,14.7,8.8,6.5,3.5,14.1,9.4,15.2,16.7,6.4,40.9,6.6,76.3.9,117.3-1.8,12.3-15.6,15.5-26.7,17-11.7,1.8-11.7,12.3.9,12.3l109.1-.3c12.6,0,12.6-11.5,4.1-11.5s-31.7-8.2-33.1-20.5c-4.7-34.1-4-68.7,2.1-102.6,1.7-9.1,5.8-21.4,14.1-23.4,26.1-7.1,17.3,9.7,33.1,19.7,16.7,10.9,44.8-2.1,40.5-24-3.8-14.4-18.5-22.9-33.4-25.2-13.9-1.7-27.9,2.7-38.4,12.1h0ZM2211.2,461.2v61s4.1,13.2,23.2-9.1c11.7,6.5,43.7,13.8,76.5,15.8,51.3,3.2,81.5-26.7,81.8-57.4.3-27.9-19.7-49.9-54.8-55.2l-83.9-11.1c-29.3-5-18.5-36.7-.6-44.3,13.5-6.1,28.4-8.3,43.1-6.5,31,.4,58.9,18.7,71.5,46.9,5.3,10.2,11.7,7.6,14.1,3.8l-.9-54.2c2-6.5-10.6-9.7-17,1.2-2,3.5-9.7,5.3-20.8,1.8-17.8-6.4-36.5-10.1-55.4-11.2-56.9.6-78.9,34-78.3,61.9.9,27.3,14.1,40.5,46.9,47.8l34.1,5.1,38.3,4.6c38.1,4.7,52.2,31.7,12.3,47.2-14.7,5.6-56.9,8.5-85.3-5.3-17.7-9.6-31.1-25.5-37.5-44.6-1.1-2.6-7.3-2.6-7.3,1.8h0Z"/>
  <path class="st0" d="M1691.5,351.2c-6.6,4.2-15.8,12.1-25.2,2.8-6.8-6.6-8.9-12.6-21.4-12.6h-41.9c-7.6,0-12.9,2-12.9,6.5s7.9,8.2,16.7,10.6c14.2,3.8,19.1,27.5,19.1,39.6v82.1c0,14.7-14.7,27.5-33.1,30.8-1.8.3-5.6,4.7-5,7.1,1.2,2.6,4.1,3.8,10.2,3.8h95.3c5.9,0,9.4-2.6,9.1-6.5-.3-3.2-2.3-5-9.4-5.6-19.9-1.5-25.2-14.4-25.2-29v-65.1c-.3-21.4,6.7-44.3,25.5-53.7,16.7-8.5,38.4-12.3,53.9-1.5,14.7,9.3,22.9,24,23.2,41.3l.3,81.5c0,13.8-8.2,23.2-34.6,28.2-4.4.9-5,11.7,4.1,11.7h107.9c7.3,0,7.3-9.1-.3-10.8-27.9-7.3-32.3-15.2-32-30.2v-80.3c0-16.1,14.1-34.6,29.3-40.5,16.7-6.7,44.6-7.1,57.2,3.5,10.8,9.1,15.2,23.4,15.2,47.8v69.5c0,16.1-4.4,26.4-31.1,31.1-5.6.9-5,10,2.9,10h98.8c8.2,0,7.9-9.1.9-10.2-22.6-3.8-27.3-15-27.3-29.3v-74.8c0-13.2-5.3-30.8-9.7-37.2-35.1-42.9-93.8-37.2-131.1-8.8-9.4,7.7-18.6-2-18.6-2-25.6-27.1-79.1-29.5-110.9-9.6h0ZM1117.2,526l.5-48.1,159.9.3.3,47.2c-.2,35.5,2.4,48.4-14.7,60.4-8.9,6.8-19.4,11.1-30.5,12.6-9.4,1.5-8.5,13.8,2,13.8h141.6c10.6,0,10-12.3.6-13.8-17.3-2.2-24-7.9-30.5-12.6-15.2-11-14.7-18.8-14.9-60.7-.3,0,0-44.9,0-97.3.9-27.3-1.1-50.1,14.9-61,11.6-7.9,18.5-11,30.5-12.6,9.4-1.5,10-13.8-.6-13.8h-141.6c-10.6,0-11.5,12.3-2,13.8,14.2,2.3,22.7,7.3,30.5,12.6,15.9,10.8,14.4,18.5,14.7,60.4l-.3,34.6-159.9-.5-.5-33.5c.3-42-1.5-50.2,14.7-60.4,11.7-7.4,18.1-10.6,30.5-12.6,9.4-1.5,8.5-13.8-2-13.8h-141.6c-10.6,0-10,12.3-.6,13.8,13.2,1.7,20.2,5.6,30.5,12.6,16,10.9,14.1,15.8,14.4,57.8l.6,100.6c-.3,42,.7,49.7-15,60.7-10.6,7.4-17.5,10.9-30.5,12.6-9.4,1.5-10,13.8.6,13.8h141.6c10.6,0,11.5-12.3,2-13.8-16.5-2.4-20.6-6.5-30.5-12.6-16.4-10.3-14.4-18.5-14.7-60.5h0ZM1453.3,583.1c12.4-.7,16.1,1.3,15.5,14.5l-.2,4.3c-12.2,1.6-17.3,3.2-27.1,6.1-5.5,1.6-10.4,4.6-14.6,8.5-5.7,6-6.3,16,3.5,20.8,10.3,6.6,30.9,5.4,39.6-3.8,1.2,1.8,2.8,3.4,4.7,4.4,9.9,6.8,23.5,4.3,30.3-5.6,2.1-3.1,3.4-6.8,3.8-10.5h-6.5c-.5,2.5-.8,5.1-2.6,6.5-2.9,2.3-6.1,2-6.4-3.1-.5-9,0-33.5-.5-34.7,0,0-1.6-5.2-6.1-8-18-10.8-45.8-5.8-56.3,1.2-6.1,4.3-3.4,11.6-1,13.6,6.3,5.4,18.1,4.2,21.3.1,2.6-3.3,5.3-10.8-1.5-13.7l4.1-.6h0ZM1468.9,621.9c0,4-.8,5-3,7.6-7.6,6.1-13.8,2.8-15.9-2.2-1.4-4-.5-8.3,2.2-11.5,4.5-4.4,10.4-7.1,16.6-7.5v13.5h0ZM1557.3,634.8c-9.7,0-9.8-4.5-10.6-10l.3-24.3c-.1-2.7.7-5.4,2.3-7.6,4-5,14.5-7.7,18.2-.3,2.4,2.6,2,7,2.4,10.6v37.5h35.2v-5.9c-9.4,0-10.2-1-10.2-10.3l-.3-28.7c.3-4-1.1-7.9-3.8-10.8-10.8-14.8-34.2-7.4-44.9,1.2,0,0,.3-8.2,0-9.3l-36.6.5v6.4c0,0,3.9,0,3.9,0,4.3-.3,6.8,1.8,8.5,5.5l.2,3.1.2,32.4c0,8.3-3.9,11-12.3,10v5.9h47.5v-5.9h0ZM1698.4,641v-5.9c-10,0-11.1-2.8-11.1-8.6v-81.8l-35.8.9v6.1c4.7-.6,10.4.1,11.1,6.7v24.9c-25.2-18.8-63.1,5.8-51.9,36.7,7.6,17.9,28.3,26.3,46.2,18.7,2.4-1,4.7-2.3,6.9-3.9v5.9h34.6,0ZM1658.1,628.7c-3,2.7-10.9,7-17.8-2.3-2.3-3.1-2.7-6.4-3.1-11.7-.9-12.2,0-23.3,7.9-27.6,9.6-5.2,17.1,5.4,17.1,14.1v17.1c0,3.2.2,6.4-4,10.3h0ZM1880.4,612.5c0-8.5,9-8.9,15.5-8.4v-6.2h-58.7v6.2c4.1-.5,15.8-.5,16.4,6.6.4,4.5.6,11.8-.9,16.2-1.5,4.5-10.2,8.4-17.1,8.1-12.1-.6-18.3-5.6-21.1-13.4-4.8-13.3-3.5-37.2-.7-47.8,2.5-9.3,7.5-18.3,17.5-22.3,19.3-6.8,37.8,9.4,41.3,27.9h9.1l-1.8-36.4h-8.2c0,5.7-4.5,8.2-9.7,6.1-3.2-.9-6.1-2.6-9.4-3.5-22.6-6.1-51.9,4.1-65.4,24.3-8.7,13.4-9.5,30.4-2,44.6,11.7,20.5,35.3,31,58.4,26.1,7.2-1.5,13.2-5.1,16.9-7.1,2.5-.8,3.9-.3,6.4.8,1.5.7,5,4.1,7.2,6.8h6.1v-28.8s0,0,0,0ZM2200.3,632.1c-7.7,2.1-18-3.3-21.3-11.2-1.4-3.5-2.2-7.3-2.3-11.1h47.6c-.3-5.9-2-22.2-17.3-29.6-11.7-6-25.5-5.6-36.9.9-10,4.8-20.5,15.7-21.6,27.6-1.1,11.7,8.9,22.1,16,26.4,20,12.2,45.9,7.1,59.8-11.7l-6.7-1.8c0,0-4.4,7.1-17.3,10.6h0ZM2177.1,595.8c.4-1.9,3.3-12.6,10-12.6,7.8,0,10,9,10.9,12.9,1,4.5.8,5.9.8,7h-22.5c0-2.4.3-4.9.8-7.3h0ZM2335.3,639.3c3.4-2.8,4.4-2.3,8.7-1.3,18.4,4.1,20.3,4.3,31.4,2.4,12-2.8,20.5-15,15.8-25.2-3.5-7.9-12.2-10.9-19.3-13.2l-17-4.1c-5.5-1.5-9.1-2.7-10.2-4.4-3.5-5.1-.7-7.4,2.6-9.1,14.3-5.7,26.6,5.7,33.7,17h7.3v-24.9h-7.3c-.6,2-2.4,3.2-4.4,4.4-3,.9-6.5-1.2-9.1-1.8-5.3-1.5-11.8-3.2-17.6-1.8-10.8,2.2-23.6,8.7-22.3,19.9s10,15.5,19.9,17.9l19.1,4.4c3.5.6,6.7,2.4,9.1,5,4.2,5.2,3,10.8-6.7,10.8s-23.7-4.1-30.2-13.2c-1.2-2.1-3.2-4.1-4.4-6.5h-6.7v25.8h6.1c-.2,0,1.5-2.5,1.5-2.2h0ZM1398.5,193.4c-12.2,36.5,8,73.2,37.5,93.8,22.1,15,48.7,22,75.4,19.9,33.4-2,79.2-16.4,97.9-49.3l-7.6-4.4c-12.5,17.3-38.8,43.9-88.8,37.5-38.8-3.8-69.8-37.9-66.4-69.9.4-3.5.6-11.3,12.4-11.3l133.1-.3c17.4,0,21.2-6.3,18.1-17.8-6.7-24.7-34.9-66.8-103.7-67-40.6-.2-87.9,18.5-107.8,68.7h0ZM1448.2,181c4.2-25.2,37.5-50,69.8-44,37.1,6.3,44.2,41.7,44.5,43,1.2,7.3-3.7,14.3-11.1,15.5-.9.1-1.7.2-2.6.2h-89.4c-7.9,0-12.6-6.7-11.1-14.7h0ZM946.9,193.4c-12.2,36.5,8,73.2,37.5,93.8,22.1,15,48.7,22,75.4,19.9,33.4-2,79.1-16.4,97.9-49.3l-7.6-4.4c-12.6,17.3-38.8,43.9-88.9,37.5-38.8-3.8-69.8-37.9-66.4-69.9.4-3.5.6-11.3,12.4-11.3l133.1-.3c17.5,0,21.2-6.3,18.1-17.8-6.7-24.7-34.9-66.8-103.7-67-40.7-.2-88,18.5-107.9,68.7h0ZM996.6,181c4.2-25.2,37.5-50,69.8-44,37.1,6.3,44.2,41.7,44.4,43,1.2,7.3-3.7,14.3-11.1,15.5-.9.1-1.7.2-2.6.2h-89.4c-7.9,0-12.6-6.7-11.1-14.7h0ZM1984.6,409.2c-12.2,36.5,8,73.2,37.5,93.8,22.1,15,48.7,22,75.4,19.9,33.4-2.1,79.1-16.4,97.9-49.3l-7.6-4.4c-12.5,17.3-38.8,43.9-88.8,37.5-38.8-3.8-69.8-37.9-66.4-69.9.4-3.5.6-11.3,12.4-11.3l133.1-.3c17.5,0,21.2-6.3,18.1-17.9-6.7-24.7-34.9-66.8-103.7-67-40.7-.2-87.9,18.6-107.9,68.7h0ZM2034.3,396.8c4.2-25.2,37.5-50,69.8-44,37.1,6.3,44.2,41.7,44.4,43,1.2,7.3-3.7,14.3-11.1,15.5-.9.1-1.7.2-2.6.2h-89.4c-8,0-12.6-6.7-11.1-14.7h0ZM1928.4,583.1c12.4-.7,16.1,1.3,15.5,14.5l-.2,4.3c-12.1,1.6-17.3,3.2-27.1,6.1-5.5,1.6-10.4,4.6-14.6,8.5-5.7,6-6.3,16,3.6,20.8,10.2,6.6,30.8,5.4,39.6-3.8,1.1,1.9,2.8,3.4,4.7,4.4,9.9,6.8,23.4,4.3,30.2-5.6,2.2-3.1,3.5-6.8,3.8-10.6h-6.5c-.5,2.5-.8,5.1-2.6,6.5-3,2.3-6.1,2-6.4-3.1-.5-9,0-33.5-.6-34.7,0,0-1.6-5.2-6.1-8-17.9-10.8-45.8-5.8-56.3,1.2-6.1,4.3-3.4,11.6-1,13.6,6.3,5.4,18.1,4.2,21.3.1,2.6-3.3,5.3-10.8-1.5-13.7l4.1-.6h0ZM1943.9,621.9c0,4-.8,5-2.9,7.6-7.6,6.1-13.8,2.8-16-2.2-1.3-4-.5-8.3,2.3-11.5,4.5-4.4,10.4-7.1,16.6-7.5v13.5Z"/>
  <path class="st0" d="M2033.9,634.8c-4.7,0-14.1,1.1-14.1-6.7v-13.2c0-9.4.1-18.5,9.1-25.8,0,1.8,1.2,2.9,2.3,4.4,7.6,7.9,17.5,3.6,21,.5,3.4-2.8,3.9-8,1.1-11.4-.4-.5-1-1-1.5-1.4-11.2-11.3-26.2-.8-32.5,8.5v-12.9h-36.1v7.1c8.1-.3,12.8,1.7,12.3,9.7v34c0,7.5-7.2,7.3-12.3,7.3v5.9h50.7v-5.9h0ZM2146.8,641v-5.9c-10,0-11.1-2.8-11.1-8.6v-81.8l-35.8.9v6.1c4.8-.6,10.4.1,11.1,6.7v24.9c-25.2-18.8-63.1,5.8-51.9,36.7,7.6,17.9,28.3,26.3,46.2,18.7,2.4-1,4.7-2.3,6.8-3.8v5.9h34.6,0ZM2106.5,628.7c-3,2.7-10.9,7-17.8-2.3-2.3-3.1-2.7-6.4-3.1-11.7-.9-12.2,0-23.3,7.8-27.6,9.6-5.2,17.1,5.4,17.1,14.1v17.1c0,3.2.2,6.4-4,10.3h0ZM2274.4,634.8c-9.7,0-9.8-4.5-10.6-10l.3-24.3c-.1-2.7.7-5.4,2.3-7.6,4-5,14.5-7.7,18.2-.3,2.4,2.6,2,7,2.4,10.6v37.5h35.2v-5.9c-9.4,0-10.2-1-10.2-10.3l-.3-28.7c.3-4-1.1-7.9-3.8-10.8-10.8-14.8-34.2-7.4-44.9,1.2,0,0,.3-8.2,0-9.3l-36.6.5v6.4c0,0,3.9,0,3.9,0,4.3-.3,6.8,1.8,8.5,5.5l.2,3.1.2,32.4c0,8.3-3.9,11-12.3,10v5.9h47.5v-5.9h0ZM2443.2,590.3c30.6,0,56.8-23.8,56.8-56.4s-26.2-56.1-56.8-56.1-57.1,23.8-57.1,56.1c0,32.6,26.2,56.4,57.1,56.4ZM2397.4,533.9c0-26.6,20.1-46.7,45.8-46.7s45.5,20.1,45.5,46.7-20.1,47-45.5,47-45.8-19.9-45.8-47h0Z"/>
  <path class="st0" d="M2431.3,538.4h11.3l17.1,28.1h11l-18.4-28.6c9.5-1.2,16.8-6.3,16.8-17.9s-7.6-18.4-22.9-18.4h-24.7v64.9h9.8v-28.1h0ZM2431.3,530.1v-20.1h13.4c6.8,0,14.1,1.5,14.1,9.5s-7.4,10.6-15.8,10.6h-11.7Z"/>
</svg>