<?xml version="1.0" encoding="UTF-8"?>
<svg id="Layer_1" xmlns="http://www.w3.org/2000/svg" version="1.1" viewBox="0 0 215 51.7">
  <!-- Generator: Adobe Illustrator 29.5.1, SVG Export Plug-In . SVG Version: 2.1.0 Build 141)  -->
  <defs>
    <style>
      .st0 {
        fill: #71717b;
      }
    </style>
  </defs>
  <polygon class="st0" points="70.6 .2 70.6 13.2 68.3 13.2 62 5.3 62 13.2 59.2 13.2 59.2 .2 61.6 .2 67.8 8.1 67.8 .2 70.6 .2"/>
  <path class="st0" d="M80.7,8.1l-2-5-2,5h4ZM81.6,10.4h-5.8l-1.1,2.8h-3L77.3.2h2.8l5.6,13h-3l-1.1-2.8Z"/>
  <polygon class="st0" points="87.9 2.6 83.9 2.6 83.9 .2 94.8 .2 94.8 2.6 90.8 2.6 90.8 13.2 87.9 13.2 87.9 2.6"/>
  <rect class="st0" x="96.4" y=".2" width="2.9" height="13"/>
  <path class="st0" d="M110.1,10.3c.6-.4,1.1-.9,1.4-1.5.7-1.4.7-3,0-4.3-.3-.6-.8-1.1-1.4-1.5-1.2-.7-2.8-.7-4,0-.6.4-1.1.9-1.4,1.5-.7,1.4-.7,3,0,4.3.3.6.8,1.1,1.4,1.5,1.2.7,2.8.7,4,0M104.6,12.5c-1-.6-1.9-1.4-2.4-2.4-.6-1-.9-2.2-.9-3.4s.3-2.4.9-3.4,1.4-1.8,2.4-2.4c2.2-1.2,4.8-1.2,7,0,1,.6,1.9,1.4,2.4,2.5,1.2,2.1,1.2,4.7,0,6.9-.6,1-1.4,1.8-2.4,2.4-2.2,1.2-4.8,1.2-7,0"/>
  <polygon class="st0" points="128 .2 128 13.2 125.6 13.2 119.4 5.3 119.4 13.2 116.6 13.2 116.6 .2 118.9 .2 125.2 8.1 125.2 .2 128 .2"/>
  <path class="st0" d="M138.1,8.1l-2-5-2,5h4ZM139,10.4h-5.8l-1.1,2.8h-3L134.7.2h2.9l5.6,13h-3l-1.1-2.8h0Z"/>
  <polygon class="st0" points="144.2 .2 147.1 .2 147.1 10.7 153.6 10.7 153.6 13.2 144.2 13.2 144.2 .2"/>
  <path class="st0" d="M66.5,27.2l-2-5-2,5h4ZM67.4,29.5h-5.8l-1.1,2.8h-3l5.6-13h2.9l5.6,13h-3l-1.2-2.8Z"/>
  <path class="st0" d="M74.2,32.1c-.8-.2-1.6-.6-2.2-1.1l1-2.3c.6.4,1.2.8,1.9,1,.7.2,1.5.4,2.2.4s1.3,0,1.8-.4c.4-.2.6-.6.6-1s0-.6-.3-.8c-.3-.2-.6-.4-.9-.5-.4,0-.9-.3-1.5-.4-.8-.2-1.6-.4-2.3-.7-.6-.2-1.1-.6-1.6-1.1-.5-.6-.7-1.3-.7-2.1s.2-1.4.6-2,1.1-1.2,1.8-1.5c.9-.4,1.9-.6,2.9-.5.8,0,1.6.1,2.3.3.7.2,1.4.5,2,.8l-.9,2.2c-1-.6-2.2-1-3.5-1s-1.2,0-1.8.4c-.4.2-.6.6-.6,1.1s.2.9.7,1c.6.3,1.3.5,2,.6.8.2,1.6.4,2.3.7.6.2,1.1.6,1.6,1.1.5.6.7,1.3.7,2.1s-.2,1.4-.6,2-1.1,1.2-1.8,1.5c-.9.4-1.9.6-2.9.5-1,0-1.9,0-2.9-.4"/>
  <path class="st0" d="M85.5,32.1c-.8-.2-1.6-.6-2.2-1.1l1-2.3c.6.4,1.2.8,1.9,1,.7.2,1.5.4,2.2.4s1.3,0,1.8-.4c.4-.2.6-.6.6-1s0-.6-.3-.8c-.3-.2-.6-.4-.9-.5-.4,0-.8-.3-1.5-.4-.8-.2-1.6-.4-2.3-.7-.6-.2-1.1-.6-1.6-1.1-.5-.6-.7-1.3-.7-2.1s.2-1.4.6-2,1.1-1.2,1.8-1.5c.9-.4,1.9-.6,2.9-.5.8,0,1.6.1,2.3.3.7.2,1.4.5,2,.8l-.9,2.3c-1-.6-2.2-1-3.5-1s-1.2,0-1.8.4c-.4.2-.6.6-.6,1.1s.2.8.7,1c.6.3,1.3.5,2,.6.8.2,1.6.4,2.3.7.6.2,1.2.5,1.6,1,.5.6.7,1.3.7,2.1s-.2,1.4-.6,2c-.4.7-1.1,1.2-1.8,1.5-.9.4-1.9.6-2.9.5-1,0-1.9,0-2.9-.4"/>
  <path class="st0" d="M103.4,29.4c.6-.4,1.1-.9,1.4-1.5.7-1.4.7-2.9,0-4.3-1.1-1.9-3.4-2.6-5.3-1.5h0c-.6.4-1.1.9-1.4,1.5-.7,1.4-.7,2.9,0,4.3.3.6.8,1.1,1.4,1.5,1.2.7,2.8.7,4,0M97.9,31.6c-1-.6-1.9-1.4-2.4-2.4-1.2-2.1-1.2-4.7,0-6.9.6-1,1.4-1.8,2.4-2.4,2.2-1.2,4.8-1.2,7,0,1,.6,1.9,1.4,2.4,2.4,1.2,2.1,1.2,4.7,0,6.9-.6,1-1.4,1.8-2.4,2.4-2.2,1.2-4.8,1.2-7,0"/>
  <path class="st0" d="M112.7,31.6c-1-.5-1.9-1.4-2.4-2.3-1.2-2.2-1.2-4.8,0-6.9.6-1,1.4-1.8,2.4-2.4,1.1-.6,2.3-.9,3.5-.9s2,.2,2.9.6,1.6,1,2.2,1.7l-1.8,1.8c-.8-1-1.9-1.5-3.1-1.5s-1.4.2-2.1.5c-.6.4-1.1.9-1.4,1.5-.7,1.4-.7,2.9,0,4.3.3.6.8,1.1,1.4,1.5s1.3.5,2.1.5c1.2,0,2.4-.6,3.1-1.5l1.8,1.8c-.6.7-1.3,1.3-2.2,1.7-.9.4-1.9.6-2.9.6s-2.4-.3-3.4-.9"/>
  <rect class="st0" x="122.9" y="19.3" width="2.9" height="13"/>
  <path class="st0" d="M136.1,27.2l-2-5-2,5h4ZM137,29.5h-5.8l-1.1,2.8h-3l5.6-13h2.9l5.6,13h-3l-1.1-2.8h0Z"/>
  <polygon class="st0" points="143.2 21.8 139.2 21.8 139.2 19.3 150.1 19.3 150.1 21.8 146.1 21.8 146.1 32.3 143.2 32.3 143.2 21.8"/>
  <rect class="st0" x="151.8" y="19.3" width="2.9" height="13"/>
  <path class="st0" d="M165.4,29.4c.6-.4,1.1-.9,1.4-1.5.7-1.4.7-2.9,0-4.3-.3-.6-.8-1.1-1.4-1.5-1.2-.7-2.8-.7-4,0-.6.4-1.1.9-1.4,1.5-.7,1.4-.7,2.9,0,4.3.3.6.8,1.1,1.4,1.5,1.2.7,2.8.7,4,0M159.9,31.6c-1-.6-1.9-1.4-2.4-2.4-1.2-2.1-1.2-4.7,0-6.9.6-1,1.4-1.8,2.4-2.4,1.1-.6,2.3-.9,3.5-.9s2.4.3,3.5.9c1,.6,1.9,1.4,2.4,2.4,1.2,2.1,1.2,4.7,0,6.9-.6,1-1.4,1.8-2.4,2.4-1.1.6-2.3.9-3.5.9s-2.4-.3-3.5-.9"/>
  <polygon class="st0" points="183.4 19.3 183.4 32.3 181 32.3 174.8 24.4 174.8 32.3 171.9 32.3 171.9 19.3 174.3 19.3 180.5 27.2 180.5 19.3 183.4 19.3"/>
  <path class="st0" d="M198.9,29.4c.6-.4,1.1-.9,1.4-1.5.7-1.4.7-2.9,0-4.3-.3-.6-.8-1.1-1.4-1.5-1.2-.7-2.8-.7-4,0-.6.4-1.1.9-1.4,1.5-.7,1.4-.7,2.9,0,4.3.3.6.8,1.1,1.4,1.5,1.2.7,2.8.7,4,0M193.4,31.6c-1-.6-1.9-1.4-2.4-2.4-1.2-2.1-1.2-4.7,0-6.9.6-1,1.4-1.8,2.4-2.4,2.2-1.2,4.8-1.2,7,0,1,.6,1.9,1.4,2.4,2.4,1.2,2.1,1.2,4.7,0,6.9-.6,1-1.4,1.8-2.4,2.4-2.2,1.2-4.8,1.2-7,0"/>
  <polygon class="st0" points="208.5 21.7 208.5 25.1 214.2 25.1 214.2 27.6 208.5 27.6 208.5 32.3 205.6 32.3 205.6 19.3 215 19.3 215 21.7 208.5 21.7"/>
  <path class="st0" d="M66.4,41.5c-.6-.4-1.3-.6-2-.6h-2.3v4.5h2.4c.7,0,1.4-.2,2-.6.9-.9.9-2.4,0-3.3M67.2,51.5l-2.4-3.6h-2.7v3.6h-2.9v-13h5.4c1,0,2,.2,2.9.6.8.3,1.4.9,1.9,1.6.9,1.5.9,3.5,0,5-.5.7-1.1,1.3-1.9,1.6l2.8,4.2s-3.1,0-3.1,0Z"/>
  <polygon class="st0" points="81.7 49 81.7 51.4 72.1 51.4 72.1 38.4 81.5 38.4 81.5 40.8 74.9 40.8 74.9 43.6 80.7 43.6 80.7 46 74.9 46 74.9 49 81.7 49"/>
  <path class="st0" d="M91.5,46.3l-2-5-2,5h4ZM92.4,48.6h-5.8l-1.1,2.8h-3l5.6-13h2.9l5.6,13h-3l-1.2-2.8Z"/>
  <polygon class="st0" points="97.7 38.4 100.6 38.4 100.6 49 106.8 49 106.8 51.4 97.7 51.4 97.7 38.4"/>
  <polygon class="st0" points="109.2 40.9 105.2 40.9 105.2 38.4 116.1 38.4 116.1 40.9 112.1 40.9 112.1 51.4 109.2 51.4 109.2 40.9"/>
  <path class="st0" d="M125.2,48.5c.6-.3,1.1-.9,1.4-1.5.7-1.4.7-3,0-4.3-.3-.6-.8-1.1-1.4-1.5-1.2-.7-2.8-.7-4,0-.6.3-1.1.9-1.4,1.5-.7,1.4-.7,3,0,4.3.3.6.8,1.1,1.4,1.5,1.2.7,2.8.7,4,0M119.7,50.8c-1-.6-1.9-1.4-2.4-2.4-1.2-2.1-1.2-4.7,0-6.9.6-1,1.4-1.8,2.4-2.4,1.1-.6,2.3-.9,3.5-.9s2.4.3,3.5.9c1,.6,1.9,1.4,2.4,2.4,1.2,2.1,1.2,4.7,0,6.9-.6,1-1.4,1.8-2.4,2.4-1.1.6-2.3.9-3.5.9s-2.4-.3-3.5-.9"/>
  <path class="st0" d="M139.1,41.5c-.6-.4-1.3-.6-2-.6h-2.4v4.5h2.4c.7,0,1.4-.2,2-.6.9-.9.9-2.4,0-3.3M139.8,51.5l-2.4-3.6h-2.6v3.6h-2.9v-13h5.4c1,0,2,.2,2.9.6.8.3,1.4.9,1.9,1.6.5.8.7,1.6.7,2.5s-.2,1.8-.7,2.5-1.1,1.3-1.9,1.6l2.8,4.2h-3.2Z"/>
  <path class="st0" d="M146.1,51.2c-.8-.2-1.6-.6-2.2-1.1l1-2.3c.6.4,1.2.8,1.9,1s1.5.4,2.2.4,1.3,0,1.8-.4c.4-.2.6-.6.6-1s-.1-.6-.4-.8c-.3-.2-.6-.4-.9-.5-.4,0-.9-.3-1.5-.4-.8-.2-1.6-.4-2.3-.7-.6-.2-1.2-.6-1.6-1.2-.5-.6-.7-1.3-.6-2.1,0-.7.2-1.4.6-2,.4-.6,1.1-1.2,1.8-1.5.9-.4,1.9-.6,2.9-.5.8,0,1.6,0,2.3.3.7.2,1.4.5,2,.9l-.9,2.3c-1-.6-2.2-1-3.5-1s-1.3,0-1.8.4c-.4.2-.6.6-.6,1.1s.3.8.7,1c.7.3,1.3.5,2.1.6.8.2,1.6.4,2.3.7.6.2,1.1.6,1.6,1.1.5.6.7,1.3.6,2.1,0,.7-.2,1.4-.6,2-.4.7-1.1,1.2-1.8,1.5-.9.4-1.9.6-2.9.5-1,0-1.9,0-2.9-.4"/>
  <path class="st0" d="M159.2,41.5c.2,0,.4,0,.6-.2.1,0,.2-.3.2-.5s0-.4-.2-.5-.4-.2-.6-.2h-.6v1.3h.6ZM160.9,41.6c-.1.2-.3.4-.6.5l.9,1.4h-1.1l-.8-1.2h-.7v1.2h-1.1v-4.2h1.8c.5,0,.9,0,1.3.4.3.3.5.7.5,1.1s0,.5-.2.8M160.6,44.1c.4-.3.8-.7,1.1-1.1.3-.5.4-1,.4-1.6s-.1-1.1-.4-1.6c-.2-.5-.6-.8-1.1-1.1-1.4-.8-3.2-.4-4,1h0c-.3.6-.4,1.1-.4,1.7s.1,1.1.4,1.6c.2.5.6.9,1.1,1.1.5.3,1,.4,1.5.4s1.1,0,1.5-.4M161,38.1c.6.3,1,.8,1.3,1.4.6,1.2.6,2.7,0,3.9-.3.6-.8,1-1.3,1.4-1.1.7-2.6.7-3.7,0-.5-.3-1-.8-1.3-1.4-.3-.6-.5-1.3-.5-1.9s.2-1.3.5-1.9c.3-.6.8-1.1,1.3-1.4.6-.3,1.2-.5,1.9-.5s1.3.2,1.9.5"/>
  <path class="st0" d="M46.1.2H0v51.4h46.1V.2ZM19.7,44.4H6.6V6.9h13.1v37.5ZM29.9,6.9c5.2,0,9.4,4,9.5,9.2v.5c0,7.5-6.5,9.1-9.5,9.1h-5.1V7h5.1,0ZM24.7,44.5v-18.6l18,18.6s-18,0-18,0Z"/>
</svg>