<?xml version="1.0" encoding="UTF-8"?>
<svg id="Layer_1" xmlns="http://www.w3.org/2000/svg" version="1.1" viewBox="0 0 2500 458">
  <!-- Generator: Adobe Illustrator 29.5.1, SVG Export Plug-In . SVG Version: 2.1.0 Build 141)  -->
  <defs>
    <style>
      .st0 {
        fill: #71717b;
      }
    </style>
  </defs>
  <path class="st0" d="M178.7,233.8c-16,0-24-12.8-28.8-24s-3.2-20.8-14.4-20.8-38.4,33.6-43.2,78.5c0,4.8-1.6,35.2-1.6,51.3v48c0,17.6-1.6,40,1.6,52.8,3.2,17.6,8,19.2,20.8,25.6,4.8,1.6,6.4,3.2,9.6,3.2v1.6H.9v-1.6c3.2,0,4.8-1.6,9.6-3.2,14.4-6.4,17.6-8,20.8-25.6,3.2-12.8,1.6-35.2,1.6-52.8v-166.6c-1.6-12.8-4.8-16-11.2-20.8-6.4-4.8-12.8-4.8-17.6-6.4v-1.6h81.7c3.2,0,3.2,1.6,3.2,3.2v73.7c8-32,24-52.9,33.6-62.5,9.6-9.6,25.6-20.8,46.5-20.8s20.8,3.2,28.8,11.2c4.8,4.8,9.6,14.4,9.6,27.2,1.6,16-8,30.4-28.8,30.4h0ZM436.5,288.3h-171.4c0,76.9,9.6,115.3,28.8,137.7,14.4,17.6,28.8,20.8,48,20.8,52.8,0,80.1-43.2,91.3-88.1h3.2c-11.2,56-48,94.5-104.1,94.5s-67.3-8-91.3-33.7c-25.6-28.8-35.2-62.4-35.2-108.9,0-88.1,49.6-145.7,120.1-145.7s115.3,54.4,115.3,105.7c-3.2,4.8-3.2,11.2-4.8,17.6h0ZM359.6,181c-11.2-11.2-20.8-14.4-36.8-14.4s-24,3.2-33.6,14.4c-14.4,16-22.4,51.3-24,102.5h94.5c19.2,0,20.8,0,20.8-28.8-1.6-38.4-11.2-64.1-20.8-73.7h0ZM631.9,453.2c-16,0-28.8,0-35.2-4.8-8-4.8-14.4-17.6-12.8-41.6-6.4,22.4-28.8,46.5-70.4,46.5s-72.1-22.4-72.1-68.9,4.8-32,16-41.6c20.8-19.2,48-20.8,75.2-32,36.8-14.4,54.5-32,54.5-51.3v-49.6c0-35.2-9.6-41.6-36.8-41.6s-22.4,3.2-28.8,9.6c-6.4,6.4-9.6,20.8-9.6,40s-11.2,28.8-28.8,28.8-25.6-8-25.6-24,3.2-19.2,11.2-27.2c14.4-17.6,54.5-28.8,81.7-28.8,48,0,94.5,17.6,94.5,64.1s-1.6,124.9-1.6,163.4,0,38.4,6.4,44.8c3.7,4,8.9,6.3,14.4,6.4,6.4,0,11.2-1.6,17.6-4.8v1.6c-8,4.8-28.9,11.2-49.7,11.2h0ZM542.2,310.7c-17.6,9.6-25.6,16-32,25.6-6.4,11.2-11.2,28.8-11.2,46.5,0,36.8,14.4,57.6,40,57.6s11.2,0,16-3.2c14.4-6.4,27.2-28.8,27.2-49.6v-108.9c-8,14.4-22.4,22.4-40,32ZM673.5,446.8c3.2-1.6,8-3.2,11.2-4.8,11.2-4.8,16-8,19.2-25.6,3.2-12.8,3.2-33.6,3.2-52.8V80c0-11.2,0-41.6-1.6-52.8-1.6-12.8-4.8-17.6-11.2-20.8-6.4-4.8-12.8-4.8-17.6-6.4h81.7q3.2,0,3.2,4.8v361.9c0,17.6,0,38.4,1.6,52.8,3.2,17.6,8,20.8,22.4,25.6,3.2,1.6,4.8,1.6,8,3.2v1.6h-120.1v-3.2h0,0Z"/>
  <path class="st0" d="M969.8,411.5c-9.6,20.8-38.5,41.7-67.3,41.7s-41.6-3.2-56-17.6c-11.2-11.2-17.6-24-17.6-48s1.6-182.5,3.2-214.6c-9.6,0-28.8,0-38.5-1.6v-1.6c40-9.6,65.7-30.4,92.9-118.5h1.6v116.9h64.1v3.2h-64.1l-3.2,233.8c0,24,6.4,38.4,33.6,38.4s40-17.6,48-33.6l3.2,1.6ZM1080.3,453.2c-64.1,0-132.9-56.1-132.9-144.1s68.9-144.1,132.9-144.1,134.5,54.4,134.5,144.1-68.9,144.1-134.5,144.1ZM1123.5,185.8c-12.8-16-28.8-19.2-43.2-19.2s-30.4,4.8-41.6,17.6c-19.2,20.8-30.4,73.7-30.4,123.3s11.2,100.9,30.4,123.3c12.8,16,28.8,19.2,43.2,19.2s28.8-3.2,43.2-19.2c17.6-20.8,30.4-72.1,30.4-123.3-1.6-49.7-12.8-99.3-32-121.7ZM1381.3,233.8c-16,0-24-12.8-28.8-24-4.8-11.2-3.2-20.8-14.4-20.8s-38.4,33.6-43.2,78.5c0,4.8-1.6,35.2-1.6,51.3v48c0,17.6-1.6,40,1.6,52.8,3.2,17.6,8,19.2,20.8,25.6,4.8,1.6,6.4,3.2,9.6,3.2v1.6h-120.1v-1.6c3.2,0,4.8-1.6,9.6-3.2,14.4-6.4,17.6-8,20.8-25.6,3.2-12.8,1.6-35.2,1.6-52.8v-166.6c-1.6-12.8-4.8-16-11.2-20.8-6.4-4.8-12.8-4.8-17.6-6.4v-1.6h81.7c3.2,0,3.2,1.6,3.2,3.2v73.7c8-32,24-52.9,33.6-62.5,9.6-9.6,25.6-20.8,46.5-20.8s20.8,3.2,28.8,11.2c4.8,4.8,9.6,14.4,9.6,27.2,0,16-9.6,30.4-30.4,30.4h0ZM1411.8,458c-19.2,0-35.2-14.4-35.2-35.2s16-35.2,35.2-35.2,35.2,12.8,35.2,35.2c-1.6,20.8-16,35.2-35.2,35.2ZM1595.9,453.2c-35.2,0-67.3-14.4-88.1-35.2s-36.8-65.7-36.8-112.1c0-88.1,67.3-140.9,126.5-140.9s70.4,14.4,81.7,28.8c9.6,11.2,14.4,20.8,14.4,30.4,0,20.8-14.4,28.8-27.2,28.8-22.4,0-30.4-14.4-32-35.2-4.8-36.8-11.2-49.6-38.4-49.6s-28.8,4.8-38.5,16c-14.4,17.6-22.4,59.3-22.4,110.5s8,105.7,24,129.7c12.8,17.6,28.8,22.4,43.2,22.4,59.3,0,84.9-51.3,94.5-89.7h3.2c-16,54.5-49.6,96.1-104.1,96.1h0ZM1829.7,453.2c-64.1,0-132.9-56.1-132.9-144.1s68.9-144.1,132.9-144.1,134.5,54.4,134.5,144.1-70.5,144.1-134.5,144.1ZM1873,185.8c-12.8-16-28.8-19.2-43.2-19.2s-30.4,4.8-41.6,17.6c-19.2,20.8-30.4,73.7-30.4,123.3s11.2,100.9,30.4,123.3c12.8,16,28.8,19.2,43.2,19.2s28.8-3.2,43.2-19.2c17.6-20.8,30.4-72.1,30.4-123.3-3.2-49.7-14.4-99.3-32-121.7ZM2284.5,446.8c3.2-1.6,4.8-3.2,9.6-4.8,12.8-4.8,17.6-8,20.8-25.6,3.2-12.8,3.2-33.6,3.2-52.8v-113.7c0-30.4-3.2-44.8-9.6-54.4-8-11.2-19.2-17.6-35.2-17.6-28.8,0-62.5,25.6-67.3,75.3,0,9.6-1.6,20.8-1.6,33.6v75.3c0,17.6-1.6,38.4,1.6,52.8,3.2,17.6,8,20.8,20.8,25.6,4.8,1.6,6.4,3.2,9.6,3.2v1.6h-121.7v-1.6c3.2,0,4.8-1.6,9.6-3.2,12.8-4.8,17.6-8,20.8-25.6,3.2-12.8,3.2-33.6,3.2-52.8v-113.7c0-30.4-3.2-44.9-11.2-54.5-8-11.2-19.2-17.6-35.2-17.6-32,0-62.5,27.2-67.3,76.9-1.6,16-1.6,35.2-1.6,54.5v52.8c0,17.6-1.6,40,1.6,52.9,3.2,17.6,8,19.2,22.4,25.6l9.6,3.2v1.6h-121.7v-1.6c3.2,0,4.8-1.6,9.6-3.2,14.4-4.8,17.6-8,20.8-25.6,3.2-12.8,3.2-35.2,3.2-52.9v-112.1c0-11.2,0-43.2-1.6-52.9-1.6-12.8-4.8-16-11.2-20.8-6.4-4.8-12.8-4.8-17.6-6.4v-1.6h81.7q3.2,0,3.2,3.2l-1.6,64.1c8-28.8,22.4-44.8,36.8-56.1,11.2-8,32-17.6,54.4-17.6s49.6,8,60.8,22.4c6.4,8,17.6,25.6,17.6,52.9,8-30.4,24-48,38.5-57.7,14.4-11.2,36.8-17.6,52.8-17.6,35.2,0,52.8,11.2,62.4,24,8,9.6,16,27.2,16,60.8v115.3c0,17.6,0,38.5,3.2,52.9,3.2,17.6,8,20.8,20.8,25.6l9.6,3.2v1.6h-120.1v3.3h.1,0ZM2451.1,222.6c-6.4,0-12.8-1.6-19.2-3.2-6.4-3.2-11.2-6.4-14.4-9.6-4.8-4.8-8-9.6-9.6-14.4-3.2-6.4-3.2-11.2-3.2-19.2s1.6-12.8,3.2-19.2c3.2-6.4,6.4-11.2,9.6-16,4.8-4.8,9.6-8,16-9.6,6.4-3.2,12.8-3.2,19.2-3.2s12.8,1.6,19.2,3.2c6.4,3.2,11.2,6.4,14.4,9.6,4.8,4.8,8,9.6,9.6,14.4,3.2,6.4,3.2,11.2,3.2,19.2s-1.6,12.8-3.2,19.2c-3.2,6.4-6.4,11.2-9.6,16s-9.6,8-16,9.6c-6.4,3.2-12.8,3.2-19.2,3.2h0ZM2451.1,217.8c6.4,0,11.2-1.6,17.6-3.2,4.8-1.6,9.6-4.8,12.8-9.6,3.2-3.2,6.4-8,9.6-12.8,1.6-4.8,3.2-11.2,3.2-16s-1.6-11.2-3.2-16c-1.7-5.2-5.1-9.7-9.6-12.8-3.2-3.2-8-6.4-12.8-9.6-4.8-1.6-11.2-3.2-16-3.2s-11.2,1.6-17.6,3.2c-5.2,1.7-9.7,5.1-12.8,9.6-3.2,3.2-6.4,8-9.6,12.8-1.6,4.8-3.2,11.2-3.2,16s1.6,11.2,3.2,16,4.8,9.6,9.6,12.8c3.2,3.2,8,6.4,12.8,9.6,4.8,1.6,11.2,3.2,16,3.2ZM2431.8,147.3h22.4c6.4,0,12.8,1.6,16,4.8s4.8,6.4,4.8,11.2-1.6,8-3.2,9.6c-1.6,3.2-4.8,4.8-8,6.4l12.8,17.6h-12.8l-11.2-16h-8v16h-11.2v-49.7h-1.6ZM2454.3,171.3c3.2,0,4.8,0,6.4-1.6s1.6-3.2,1.6-4.8c0-3.2,0-4.8-1.6-4.8-1.6-1.6-3.2-1.6-6.4-1.6h-11.2v14.4h11.2v-1.6Z"/>
</svg>