<?xml version="1.0" encoding="UTF-8"?>
<svg id="Layer_1" xmlns="http://www.w3.org/2000/svg" version="1.1" viewBox="0 0 381.9 79.7">
  <!-- Generator: Adobe Illustrator 29.5.1, SVG Export Plug-In . SVG Version: 2.1.0 Build 141)  -->
  <defs>
    <style>
      .st0 {
        fill: #71717b;
      }
    </style>
  </defs>
  <path class="st0" d="M238.4,54c0-14.8,11.9-25.7,26.5-25.7s26.3,10.9,26.3,25.7-11.9,25.7-26.3,25.7c-14.6,0-26.5-10.9-26.5-25.7ZM148.5,10.8v3c0,1.1-.2,1.5-.5,1.9l-28.2,48c0,0,0,.2.1.2h30v14.3h-54v-2.8c0-1.2.2-1.5.8-2.7l27.9-47.3c0,0,0-.2-.1-.2h-27.7v-14.3h51.7ZM322.1,78.1h-14.4l-15.7-48.6h15.5l4.5,14.7c1.5,4.9,4,14,4,14,0,.1.2,0,.2,0,0,0,2.6-9.3,4.1-14l4.7-14.7h11.4l4.6,14.7c1.6,5,4,14,4,14,0,.1.2.1.2,0,0,0,2.5-9.1,4-14l4.5-14.7h14.4l-15.6,48.6h-14.2l-3.9-12.2c-1.5-4.8-4.1-14.1-4.1-14.1,0-.1-.2-.1-.2,0,0,0-2.6,9.1-4.2,14l-4,12.3ZM175.7,78.1h-15.7V29.6h15.7v48.6ZM187.6,3.9h15.7v74.2h-15.7V3.9ZM214.9,3.9h15.7v74.2h-15.7V3.9ZM276.1,54c0-7.2-5.2-12.1-11.3-12.1s-11.4,4.9-11.4,12.1,5.2,12.1,11.4,12.1c6.1,0,11.3-4.9,11.3-12.1ZM376,17.9c-3.2,0-5.9,2.6-5.9,5.9s2.6,5.9,5.9,5.9,5.9-2.6,5.9-5.9-2.6-5.9-5.9-5.9ZM376,28.5c-2.6,0-4.7-2.1-4.7-4.7s2.1-4.7,4.7-4.7,4.7,2.1,4.7,4.7-2.1,4.7-4.7,4.7ZM376.3,20.3c1.4,0,2.3,1,2.3,2.4s-.6,1.9-1.4,2.2l1.3,2.2h-1.3l-1.2-2h-1.1v2h-1.1v-6.8h2.5ZM376.3,21.3h-1.3v2.8h1.3c.7,0,1.3-.6,1.3-1.4s-.5-1.4-1.3-1.4ZM167.8,5.2c4.9,0,8.9,3.9,8.9,8.8s-4,8.8-8.9,8.8-8.9-3.9-8.9-8.8c0-4.9,4-8.8,8.9-8.8Z"/>
  <path class="st0" d="M19.3,69.9c-.3.2-.5.1-.8-.1l-6.7-8c-.2-.2-.2-.3,0-.7,5.2-7.6,15.7-19.4,22.4-24.3.1,0,0-.2,0-.1-7,2.3-26.9,10.8-34.3,15v27.1h71.7v-26.1c-9.8,1.7-39,10.4-52.3,17.2ZM48.5,21.2c.4,0,.5,0,.7.3,1.2,1.4,5.2,6.2,6.3,7.5.2.2,0,.5,0,.6-8,6.2-16.9,15.1-21.9,21.4,0,.1,0,.1,0,.1,8.6-3.7,29-9.7,38.1-11.3v-11.6L35.9,0,0,28.3v12.7c11.1-6.6,36.8-16.8,48.5-19.7Z"/>
</svg>